<svg width="1513" height="407" viewBox="0 0 1513 407" fill="none" xmlns="http://www.w3.org/2000/svg">
<g clip-path="url(#clip0_13_2)">
<rect width="1513" height="407" rx="10" fill="#EEEEEE"/>
<path d="M-267.528 33.6987C-153.164 89.4508 -33.6585 148.534 97.5441 130.872C185.472 119.035 271.224 84.7676 353.642 53.9205C423.108 27.9213 479.387 5.09418 549.278 -19.7695C585.83 -32.7729 647.321 -55.8248 689.918 -60.6306C732.51 -65.4358 743.199 -37.555 761.312 -4.75673C785.121 38.3538 804.542 98.2875 854.353 119.485C872.117 127.045 892.075 129.71 911.38 129.592C952.046 129.344 1111.2 101 1136.38 96.9314C1260.83 76.8252 1385.03 59.6783 1510.12 44.857" stroke="white" stroke-width="2" stroke-linecap="round"/>
<path d="M-565.276 293.35C-462.056 367.735 -354.336 446.276 -222.041 451.179C-133.38 454.464 -43.0513 435.275 43.4122 418.89C116.287 405.08 175.628 392.154 248.728 379.536C286.959 372.936 351.474 360.675 394.268 363.181C437.056 365.688 442.85 394.98 455.123 430.38C471.255 476.911 480.203 539.274 525.685 568.632C541.905 579.102 561.12 585.122 580.163 588.288C620.28 594.957 781.94 594.086 807.444 594.359C933.499 595.704 1058.8 599.923 1184.6 606.587" stroke="white" stroke-width="2" stroke-linecap="round"/>
<circle cx="-7.01035" cy="352.324" r="5.5" transform="rotate(-38.961 -7.01035 352.324)" fill="#6F6F6F"/>
<circle cx="8.54116" cy="339.748" r="5.5" transform="rotate(-38.961 8.54116 339.748)" fill="#6F6F6F"/>
<circle cx="24.0927" cy="327.172" r="5.5" transform="rotate(-38.961 24.0927 327.172)" fill="#6F6F6F"/>
<circle cx="39.6442" cy="314.596" r="5.5" transform="rotate(-38.961 39.6442 314.596)" fill="#6F6F6F"/>
<circle cx="55.1957" cy="302.02" r="5.5" transform="rotate(-38.961 55.1957 302.02)" fill="#6F6F6F"/>
<circle cx="70.747" cy="289.444" r="5.5" transform="rotate(-38.961 70.747 289.444)" fill="#6F6F6F"/>
<circle cx="86.2985" cy="276.869" r="5.5" transform="rotate(-38.961 86.2985 276.869)" fill="#6F6F6F"/>
<circle cx="101.85" cy="264.293" r="5.5" transform="rotate(-38.961 101.85 264.293)" fill="#6F6F6F"/>
<circle cx="117.402" cy="251.717" r="5.5" transform="rotate(-38.961 117.402 251.717)" fill="#6F6F6F"/>
<circle cx="132.953" cy="239.141" r="5.5" transform="rotate(-38.961 132.953 239.141)" fill="#6F6F6F"/>
<circle cx="148.505" cy="226.565" r="5.5" transform="rotate(-38.961 148.505 226.565)" fill="#6F6F6F"/>
<circle cx="164.056" cy="213.99" r="5.5" transform="rotate(-38.961 164.056 213.99)" fill="#6F6F6F"/>
<circle cx="179.608" cy="201.414" r="5.5" transform="rotate(-38.961 179.608 201.414)" fill="#6F6F6F"/>
<circle cx="195.159" cy="188.838" r="5.5" transform="rotate(-38.961 195.159 188.838)" fill="#6F6F6F"/>
<circle cx="-4.03477" cy="324.196" r="5.5" transform="rotate(-38.961 -4.03477 324.196)" fill="#6F6F6F"/>
<circle cx="11.5167" cy="311.62" r="5.5" transform="rotate(-38.961 11.5167 311.62)" fill="#6F6F6F"/>
<circle cx="27.0683" cy="299.045" r="5.5" transform="rotate(-38.961 27.0683 299.045)" fill="#6F6F6F"/>
<circle cx="42.6198" cy="286.469" r="5.5" transform="rotate(-38.961 42.6198 286.469)" fill="#6F6F6F"/>
<circle cx="58.1713" cy="273.893" r="5.5" transform="rotate(-38.961 58.1713 273.893)" fill="#6F6F6F"/>
<circle cx="73.7228" cy="261.317" r="5.5" transform="rotate(-38.961 73.7228 261.317)" fill="#6F6F6F"/>
<circle cx="89.2743" cy="248.741" r="5.5" transform="rotate(-38.961 89.2743 248.741)" fill="#6F6F6F"/>
<circle cx="104.826" cy="236.166" r="5.5" transform="rotate(-38.961 104.826 236.166)" fill="#6F6F6F"/>
<circle cx="120.377" cy="223.59" r="5.5" transform="rotate(-38.961 120.377 223.59)" fill="#6F6F6F"/>
<circle cx="135.929" cy="211.014" r="5.5" transform="rotate(-38.961 135.929 211.014)" fill="#6F6F6F"/>
<circle cx="151.48" cy="198.438" r="5.5" transform="rotate(-38.961 151.48 198.438)" fill="#6F6F6F"/>
<circle cx="167.032" cy="185.862" r="5.5" transform="rotate(-38.961 167.032 185.862)" fill="#6F6F6F"/>
<circle cx="182.583" cy="173.286" r="5.5" transform="rotate(-38.961 182.583 173.286)" fill="#6F6F6F"/>
<circle cx="-1.05894" cy="296.069" r="5.5" transform="rotate(-38.961 -1.05894 296.069)" fill="#6F6F6F"/>
<circle cx="14.4926" cy="283.493" r="5.5" transform="rotate(-38.961 14.4926 283.493)" fill="#6F6F6F"/>
<circle cx="30.0438" cy="270.917" r="5.5" transform="rotate(-38.961 30.0438 270.917)" fill="#6F6F6F"/>
<circle cx="45.5954" cy="258.341" r="5.5" transform="rotate(-38.961 45.5954 258.341)" fill="#6F6F6F"/>
<circle cx="61.1469" cy="245.766" r="5.5" transform="rotate(-38.961 61.1469 245.766)" fill="#6F6F6F"/>
<circle cx="76.6984" cy="233.19" r="5.5" transform="rotate(-38.961 76.6984 233.19)" fill="#6F6F6F"/>
<circle cx="92.2499" cy="220.614" r="5.5" transform="rotate(-38.961 92.2499 220.614)" fill="#6F6F6F"/>
<circle cx="107.801" cy="208.038" r="5.5" transform="rotate(-38.961 107.801 208.038)" fill="#6F6F6F"/>
<circle cx="123.353" cy="195.462" r="5.5" transform="rotate(-38.961 123.353 195.462)" fill="#6F6F6F"/>
<circle cx="138.904" cy="182.887" r="5.5" transform="rotate(-38.961 138.904 182.887)" fill="#6F6F6F"/>
<circle cx="154.456" cy="170.311" r="5.5" transform="rotate(-38.961 154.456 170.311)" fill="#6F6F6F"/>
<circle cx="170.007" cy="157.735" r="5.5" transform="rotate(-38.961 170.007 157.735)" fill="#6F6F6F"/>
<path d="M154.724 403.35C257.944 477.735 365.664 556.276 497.959 561.179C586.62 564.464 676.949 545.275 763.412 528.89C836.287 515.08 895.628 502.154 968.728 489.536C1006.96 482.936 1071.47 470.675 1114.27 473.181C1157.06 475.688 1162.85 504.98 1175.12 540.38C1191.26 586.911 1200.2 649.274 1245.69 678.632C1261.9 689.102 1281.12 695.122 1300.16 698.288C1340.28 704.957 1501.94 704.086 1527.44 704.359C1653.5 705.704 1778.8 709.923 1904.6 716.587" stroke="white" stroke-width="2" stroke-linecap="round"/>
<circle cx="775.196" cy="412.02" r="5.5" transform="rotate(-38.961 775.196 412.02)" fill="#6F6F6F"/>
<circle cx="790.747" cy="399.444" r="5.5" transform="rotate(-38.961 790.747 399.444)" fill="#6F6F6F"/>
<circle cx="806.298" cy="386.869" r="5.5" transform="rotate(-38.961 806.298 386.869)" fill="#6F6F6F"/>
<circle cx="821.85" cy="374.293" r="5.5" transform="rotate(-38.961 821.85 374.293)" fill="#6F6F6F"/>
<circle cx="837.401" cy="361.717" r="5.5" transform="rotate(-38.961 837.401 361.717)" fill="#6F6F6F"/>
<circle cx="852.953" cy="349.141" r="5.5" transform="rotate(-38.961 852.953 349.141)" fill="#6F6F6F"/>
<circle cx="868.505" cy="336.565" r="5.5" transform="rotate(-38.961 868.505 336.565)" fill="#6F6F6F"/>
<circle cx="884.056" cy="323.99" r="5.5" transform="rotate(-38.961 884.056 323.99)" fill="#6F6F6F"/>
<circle cx="899.608" cy="311.414" r="5.5" transform="rotate(-38.961 899.608 311.414)" fill="#6F6F6F"/>
<circle cx="915.159" cy="298.838" r="5.5" transform="rotate(-38.961 915.159 298.838)" fill="#6F6F6F"/>
<circle cx="747.068" cy="409.045" r="5.5" transform="rotate(-38.961 747.068 409.045)" fill="#6F6F6F"/>
<circle cx="762.62" cy="396.469" r="5.5" transform="rotate(-38.961 762.62 396.469)" fill="#6F6F6F"/>
<circle cx="778.171" cy="383.893" r="5.5" transform="rotate(-38.961 778.171 383.893)" fill="#6F6F6F"/>
<circle cx="793.723" cy="371.317" r="5.5" transform="rotate(-38.961 793.723 371.317)" fill="#6F6F6F"/>
<circle cx="809.274" cy="358.741" r="5.5" transform="rotate(-38.961 809.274 358.741)" fill="#6F6F6F"/>
<circle cx="824.826" cy="346.166" r="5.5" transform="rotate(-38.961 824.826 346.166)" fill="#6F6F6F"/>
<circle cx="840.377" cy="333.59" r="5.5" transform="rotate(-38.961 840.377 333.59)" fill="#6F6F6F"/>
<circle cx="855.929" cy="321.014" r="5.5" transform="rotate(-38.961 855.929 321.014)" fill="#6F6F6F"/>
<circle cx="871.48" cy="308.438" r="5.5" transform="rotate(-38.961 871.48 308.438)" fill="#6F6F6F"/>
<circle cx="887.032" cy="295.862" r="5.5" transform="rotate(-38.961 887.032 295.862)" fill="#6F6F6F"/>
<circle cx="902.583" cy="283.286" r="5.5" transform="rotate(-38.961 902.583 283.286)" fill="#6F6F6F"/>
<circle cx="718.941" cy="406.069" r="5.5" transform="rotate(-38.961 718.941 406.069)" fill="#6F6F6F"/>
<circle cx="734.493" cy="393.493" r="5.5" transform="rotate(-38.961 734.493 393.493)" fill="#6F6F6F"/>
<circle cx="750.044" cy="380.917" r="5.5" transform="rotate(-38.961 750.044 380.917)" fill="#6F6F6F"/>
<circle cx="765.595" cy="368.341" r="5.5" transform="rotate(-38.961 765.595 368.341)" fill="#6F6F6F"/>
<circle cx="781.147" cy="355.766" r="5.5" transform="rotate(-38.961 781.147 355.766)" fill="#6F6F6F"/>
<circle cx="796.698" cy="343.19" r="5.5" transform="rotate(-38.961 796.698 343.19)" fill="#6F6F6F"/>
<circle cx="812.25" cy="330.614" r="5.5" transform="rotate(-38.961 812.25 330.614)" fill="#6F6F6F"/>
<circle cx="827.801" cy="318.038" r="5.5" transform="rotate(-38.961 827.801 318.038)" fill="#6F6F6F"/>
<circle cx="843.353" cy="305.462" r="5.5" transform="rotate(-38.961 843.353 305.462)" fill="#6F6F6F"/>
<circle cx="858.904" cy="292.887" r="5.5" transform="rotate(-38.961 858.904 292.887)" fill="#6F6F6F"/>
<circle cx="874.456" cy="280.311" r="5.5" transform="rotate(-38.961 874.456 280.311)" fill="#6F6F6F"/>
<circle cx="890.007" cy="267.735" r="5.5" transform="rotate(-38.961 890.007 267.735)" fill="#6F6F6F"/>
<g filter="url(#filter0_f_13_2)">
<ellipse cx="1297" cy="371" rx="268" ry="227" fill="#613AFF"/>
</g>
<g filter="url(#filter1_f_13_2)">
<ellipse cx="149" cy="207" rx="268" ry="227" fill="#FF8D3A"/>
</g>
</g>
<defs>
<filter id="filter0_f_13_2" x="685" y="-200" width="1224" height="1142" filterUnits="userSpaceOnUse" color-interpolation-filters="sRGB">
<feFlood flood-opacity="0" result="BackgroundImageFix"/>
<feBlend mode="normal" in="SourceGraphic" in2="BackgroundImageFix" result="shape"/>
<feGaussianBlur stdDeviation="172" result="effect1_foregroundBlur_13_2"/>
</filter>
<filter id="filter1_f_13_2" x="-463" y="-364" width="1224" height="1142" filterUnits="userSpaceOnUse" color-interpolation-filters="sRGB">
<feFlood flood-opacity="0" result="BackgroundImageFix"/>
<feBlend mode="normal" in="SourceGraphic" in2="BackgroundImageFix" result="shape"/>
<feGaussianBlur stdDeviation="172" result="effect1_foregroundBlur_13_2"/>
</filter>
<clipPath id="clip0_13_2">
<rect width="1513" height="407" rx="10" fill="white"/>
</clipPath>
</defs>
</svg>
