<svg width="1606" height="1099" viewBox="0 0 1606 1099" fill="none" xmlns="http://www.w3.org/2000/svg">
<g clip-path="url(#clip0_17_2)">
<rect width="1606" height="1099" fill="white"/>
<path d="M-72 589.323C-25.1055 589.323 21.7678 595.625 68.6399 597.26C141.046 599.786 213.815 598.034 285.429 586.099C388.518 568.917 475.944 523.638 564.724 471.007C670.689 408.19 783.776 355.667 899.581 313.5C1025.03 267.822 1154.57 238.7 1283.92 207.09C1366.22 186.978 1450.27 166.789 1535.44 165.295C1552.98 164.987 1618.28 157.352 1626.84 183.03" stroke="#FF5656" stroke-opacity="0.44" stroke-width="3" stroke-linecap="round"/>
<path d="M3.33057 261.034C111.047 262.804 216.222 268.715 320.973 295.806C407.189 318.103 491.544 347.336 575.338 377.253C662.624 408.416 751.514 433.989 840.354 460.266C964.122 496.873 1088.34 539.689 1216.73 556.436C1315.96 569.379 1427.95 572.706 1526.7 552.05C1601.03 536.501 1658.22 493.882 1707.45 437.555C1743.81 395.948 1771.4 349.822 1797.98 301.758C1804.9 289.239 1809.18 275.799 1821.79 269.492" stroke="#6D56FF" stroke-opacity="0.43" stroke-width="3" stroke-linecap="round"/>
<path d="M-72 789.323C-25.1055 789.323 21.7678 795.625 68.6399 797.26C141.046 799.786 213.815 798.034 285.429 786.099C388.518 768.917 475.944 723.638 564.724 671.007C670.689 608.19 783.776 555.667 899.581 513.5C1025.03 467.822 1154.57 438.7 1283.92 407.09C1366.22 386.978 1450.27 366.789 1535.44 365.295C1552.98 364.987 1618.28 357.352 1626.84 383.03" stroke="#FF5656" stroke-opacity="0.44" stroke-width="3" stroke-linecap="round"/>
<path d="M3.33057 461.034C111.047 462.804 216.222 468.715 320.973 495.806C407.189 518.103 491.544 547.336 575.338 577.253C662.624 608.416 751.514 633.989 840.354 660.266C964.122 696.873 1088.34 739.689 1216.73 756.436C1315.96 769.379 1427.95 772.706 1526.7 752.05C1601.03 736.501 1658.22 693.882 1707.45 637.555C1743.81 595.948 1771.4 549.822 1797.98 501.758C1804.9 489.239 1809.18 475.799 1821.79 469.492" stroke="#6D56FF" stroke-opacity="0.43" stroke-width="3" stroke-linecap="round"/>
<path d="M1363.5 476.5C1363.5 486.717 1373.72 509 1363.5 509C1353.28 509 1326.5 486.717 1326.5 476.5C1326.5 466.283 1334.78 458 1345 458C1355.22 458 1363.5 466.283 1363.5 476.5Z" fill="#4182FF"/>
<path d="M181 381V457.5L231 414H181V381Z" fill="#3BE300"/>
<path d="M832 791L875.5 802.5L885 830L848.5 816L832 791Z" fill="#BA29FF"/>
<path d="M935 222L978.5 233.5L988 261L951.5 247L935 222Z" fill="#2A2A2A" fill-opacity="0.77"/>
</g>
<defs>
<clipPath id="clip0_17_2">
<rect width="1606" height="1099" fill="white"/>
</clipPath>
</defs>
</svg>
