<svg width="817" height="880" viewBox="0 0 817 880" fill="none" xmlns="http://www.w3.org/2000/svg">
<g clip-path="url(#clip0_5_2)">
<rect width="817" height="880" fill="#405DF7"/>
<g filter="url(#filter0_f_5_2)">
<circle cx="1638.5" cy="122.5" r="198.5" fill="#ADFFF5"/>
</g>
<path d="M207.23 468V403.92L513.81 286L243.275 402.585L217.954 413.977V429.774H243.275V439.831H217.954V457.943L243.275 463.06L207.23 468Z" fill="white"/>
<path d="M278.56 469.335C274.14 469.335 270.283 468.222 266.99 465.997C263.697 463.772 261.146 460.746 259.336 456.919C257.526 453.092 256.622 448.776 256.622 443.97C256.622 439.105 257.526 434.773 259.336 430.976C261.175 427.149 263.771 424.138 267.124 421.942C270.476 419.717 274.422 418.605 278.961 418.605C283.529 418.605 287.356 419.717 290.442 421.942C293.557 424.138 295.915 427.149 297.517 430.976C299.119 434.803 299.92 439.134 299.92 443.97C299.92 448.746 299.119 453.063 297.517 456.919C295.915 460.746 293.527 463.772 290.353 465.997C287.178 468.222 283.247 469.335 278.56 469.335ZM280.207 459.723C283.084 459.723 285.398 459.07 287.149 457.765C288.929 456.43 290.219 454.576 291.02 452.202C291.851 449.829 292.266 447.085 292.266 443.97C292.266 440.825 291.851 438.081 291.02 435.737C290.219 433.364 288.958 431.525 287.238 430.219C285.517 428.884 283.292 428.217 280.563 428.217C277.685 428.217 275.312 428.929 273.443 430.353C271.574 431.747 270.194 433.646 269.304 436.049C268.414 438.422 267.969 441.063 267.969 443.97C267.969 446.907 268.399 449.577 269.26 451.98C270.15 454.353 271.499 456.237 273.309 457.631C275.119 459.026 277.418 459.723 280.207 459.723ZM292.266 468V434.269H290.931V403.92H301.745V468H292.266Z" fill="white"/>
<path d="M332.244 469.379C328.684 469.379 325.747 468.786 323.433 467.599C321.119 466.413 319.279 464.9 317.915 463.06C316.55 461.221 315.541 459.263 314.889 457.186C314.236 455.11 313.806 453.152 313.598 451.312C313.42 449.443 313.331 447.93 313.331 446.773V419.94H324.189V443.08C324.189 444.563 327.792 459.631 328 461.5C328.208 463.339 325.183 451.728 325.925 453.448C326.696 455.139 327.823 456.534 329.307 457.631C330.82 458.729 332.852 459.278 335.403 459.278C336.768 459.278 338.118 459.055 339.453 458.61C340.788 458.165 341.989 457.409 343.057 456.341C344.155 455.243 345.03 453.745 345.683 451.846C346.335 449.948 328 464.407 328 461.5L348.5 450.5L353.025 447.352C353.025 451.446 352.224 455.154 350.622 458.477C349.05 461.8 346.721 464.455 343.636 466.442C340.55 468.4 336.753 469.379 332.244 469.379ZM347.952 468V453.092H346.662V419.94H357.431V468H347.952Z" fill="white"/>
<path d="M390.804 469.335C385.849 469.335 381.622 468.237 378.121 466.042C374.62 463.817 371.936 460.791 370.067 456.964C368.227 453.137 367.293 448.806 367.263 443.97C367.293 439.045 368.257 434.684 370.156 430.887C372.084 427.06 374.813 424.064 378.344 421.898C381.874 419.703 386.072 418.605 390.937 418.605C396.396 418.605 401.009 419.984 404.777 422.743C408.574 425.473 411.051 429.211 412.208 433.957L401.528 436.85C400.697 434.269 399.318 432.266 397.39 430.842C395.461 429.389 393.266 428.662 390.804 428.662C388.015 428.662 385.716 429.329 383.906 430.664C382.096 431.97 380.761 433.779 379.901 436.093C379.041 438.407 378.611 441.033 378.611 443.97C378.611 448.539 379.634 452.232 381.681 455.05C383.728 457.869 386.769 459.278 390.804 459.278C393.652 459.278 395.891 458.625 397.523 457.32C399.184 456.015 400.43 454.131 401.261 451.668L412.208 454.116C410.725 459.011 408.129 462.779 404.421 465.419C400.712 468.03 396.173 469.335 390.804 469.335Z" fill="white"/>
<path d="M420.712 468V402.585H431.436V468H420.712Z" fill="white"/>
<path d="M445.656 412.642V402.807H456.381V412.642H445.656ZM445.656 468V419.94H456.381V468H445.656Z" fill="white"/>
<path d="M502.952 468V444.86C502.952 443.347 502.848 441.671 502.64 439.831C502.433 437.992 501.943 436.227 501.172 434.536C500.43 432.815 499.303 431.406 497.79 430.308C496.307 429.211 494.289 428.662 491.738 428.662C490.373 428.662 489.023 428.884 487.688 429.329C486.353 429.774 485.137 430.546 484.039 431.643C482.971 432.711 482.111 434.195 481.458 436.093C480.806 437.962 480.479 440.365 480.479 443.302L474.116 440.588C474.116 436.494 474.902 432.786 476.474 429.463C478.076 426.14 480.42 423.5 483.505 421.542C486.591 419.554 490.388 418.56 494.897 418.56C498.457 418.56 501.394 419.154 503.708 420.34C506.022 421.527 507.862 423.04 509.226 424.879C510.591 426.719 511.6 428.677 512.252 430.753C512.905 432.83 513.32 434.803 513.498 436.672C513.706 438.511 513.81 440.009 513.81 441.166V468H502.952ZM469.621 468V419.94H479.189V434.847H480.479V468H469.621Z" fill="white"/>
<path d="M526.312 412.642L530.5 419.94L537.037 402.807L510.5 388.5L526.312 412.642ZM526.312 468V419.94H537.037V468H526.312Z" fill="white"/>
<path d="M571.237 469.335C566.283 469.335 562.055 468.237 558.555 466.042C555.054 463.817 552.369 460.791 550.5 456.964C548.661 453.137 547.726 448.806 547.697 443.97C547.726 439.045 548.691 434.684 550.589 430.887C552.518 427.06 555.247 424.064 558.777 421.898C562.308 419.703 566.505 418.605 571.371 418.605C576.829 418.605 581.443 419.984 585.21 422.743C589.008 425.473 591.485 429.211 592.642 433.957L581.962 436.85C581.131 434.269 579.752 432.266 577.823 430.842C575.895 429.389 573.7 428.662 571.237 428.662C568.449 428.662 566.149 429.329 564.34 430.664C562.53 431.97 561.195 433.779 560.335 436.093C559.474 438.407 559.044 441.033 559.044 443.97C559.044 448.539 560.068 452.232 562.115 455.05C564.162 457.869 567.203 459.278 571.237 459.278C574.085 459.278 576.325 458.625 577.957 457.32C579.618 456.015 580.864 454.131 581.695 451.668L592.642 454.116C591.158 459.011 588.563 462.779 584.854 465.419C581.146 468.03 576.607 469.335 571.237 469.335Z" fill="white"/>
<path d="M179.47 509.065L171.88 523.684V532H168.118V523.684L160.495 509.065H164.686L169.999 520.318L175.312 509.065H179.47ZM190.342 532.297C188.626 532.297 187.075 531.912 185.689 531.142C184.303 530.35 183.214 529.25 182.422 527.842C181.63 526.412 181.234 524.762 181.234 522.892C181.234 521.044 181.641 519.405 182.455 517.975C183.269 516.545 184.38 515.445 185.788 514.675C187.196 513.905 188.769 513.52 190.507 513.52C192.245 513.52 193.818 513.905 195.226 514.675C196.634 515.445 197.745 516.545 198.559 517.975C199.373 519.405 199.78 521.044 199.78 522.892C199.78 524.74 199.362 526.379 198.526 527.809C197.69 529.239 196.546 530.35 195.094 531.142C193.664 531.912 192.08 532.297 190.342 532.297ZM190.342 529.03C191.31 529.03 192.212 528.799 193.048 528.337C193.906 527.875 194.599 527.182 195.127 526.258C195.655 525.334 195.919 524.212 195.919 522.892C195.919 521.572 195.666 520.461 195.16 519.559C194.654 518.635 193.983 517.942 193.147 517.48C192.311 517.018 191.409 516.787 190.441 516.787C189.473 516.787 188.571 517.018 187.735 517.48C186.921 517.942 186.272 518.635 185.788 519.559C185.304 520.461 185.062 521.572 185.062 522.892C185.062 524.85 185.557 526.368 186.547 527.446C187.559 528.502 188.824 529.03 190.342 529.03ZM219.966 513.817V532H216.204V529.855C215.61 530.603 214.829 531.197 213.861 531.637C212.915 532.055 211.903 532.264 210.825 532.264C209.395 532.264 208.108 531.967 206.964 531.373C205.842 530.779 204.951 529.899 204.291 528.733C203.653 527.567 203.334 526.159 203.334 524.509V513.817H207.063V523.948C207.063 525.576 207.47 526.83 208.284 527.71C209.098 528.568 210.209 528.997 211.617 528.997C213.025 528.997 214.136 528.568 214.95 527.71C215.786 526.83 216.204 525.576 216.204 523.948V513.817H219.966ZM228.692 516.457C229.242 515.533 229.968 514.818 230.87 514.312C231.794 513.784 232.883 513.52 234.137 513.52V517.414H233.18C231.706 517.414 230.584 517.788 229.814 518.536C229.066 519.284 228.692 520.582 228.692 522.43V532H224.93V513.817H228.692V516.457ZM249.929 512.101V518.833H257.849V521.902H249.929V528.931H258.839V532H246.167V509.032H258.839V512.101H249.929ZM262.219 522.826C262.219 521 262.593 519.383 263.341 517.975C264.111 516.567 265.145 515.478 266.443 514.708C267.763 513.916 269.226 513.52 270.832 513.52C272.02 513.52 273.186 513.784 274.33 514.312C275.496 514.818 276.42 515.5 277.102 516.358V507.58H280.897V532H277.102V529.261C276.486 530.141 275.628 530.867 274.528 531.439C273.45 532.011 272.207 532.297 270.799 532.297C269.215 532.297 267.763 531.901 266.443 531.109C265.145 530.295 264.111 529.173 263.341 527.743C262.593 526.291 262.219 524.652 262.219 522.826ZM277.102 522.892C277.102 521.638 276.838 520.549 276.31 519.625C275.804 518.701 275.133 517.997 274.297 517.513C273.461 517.029 272.559 516.787 271.591 516.787C270.623 516.787 269.721 517.029 268.885 517.513C268.049 517.975 267.367 518.668 266.839 519.592C266.333 520.494 266.08 521.572 266.08 522.826C266.08 524.08 266.333 525.18 266.839 526.126C267.367 527.072 268.049 527.798 268.885 528.304C269.743 528.788 270.645 529.03 271.591 529.03C272.559 529.03 273.461 528.788 274.297 528.304C275.133 527.82 275.804 527.116 276.31 526.192C276.838 525.246 277.102 524.146 277.102 522.892ZM302.305 513.817V532H298.543V529.855C297.949 530.603 297.168 531.197 296.2 531.637C295.254 532.055 294.242 532.264 293.164 532.264C291.734 532.264 290.447 531.967 289.303 531.373C288.181 530.779 287.29 529.899 286.63 528.733C285.992 527.567 285.673 526.159 285.673 524.509V513.817H289.402V523.948C289.402 525.576 289.809 526.83 290.623 527.71C291.437 528.568 292.548 528.997 293.956 528.997C295.364 528.997 296.475 528.568 297.289 527.71C298.125 526.83 298.543 525.576 298.543 523.948V513.817H302.305ZM306.015 522.892C306.015 521.022 306.389 519.383 307.137 517.975C307.907 516.545 308.963 515.445 310.305 514.675C311.647 513.905 313.187 513.52 314.925 513.52C317.125 513.52 318.94 514.048 320.37 515.104C321.822 516.138 322.801 517.623 323.307 519.559H319.248C318.918 518.657 318.39 517.953 317.664 517.447C316.938 516.941 316.025 516.688 314.925 516.688C313.385 516.688 312.153 517.238 311.229 518.338C310.327 519.416 309.876 520.934 309.876 522.892C309.876 524.85 310.327 526.379 311.229 527.479C312.153 528.579 313.385 529.129 314.925 529.129C317.103 529.129 318.544 528.172 319.248 526.258H323.307C322.779 528.106 321.789 529.58 320.337 530.68C318.885 531.758 317.081 532.297 314.925 532.297C313.187 532.297 311.647 531.912 310.305 531.142C308.963 530.35 307.907 529.25 307.137 527.842C306.389 526.412 306.015 524.762 306.015 522.892ZM325.802 522.826C325.802 521 326.176 519.383 326.924 517.975C327.694 516.567 328.728 515.478 330.026 514.708C331.346 513.916 332.798 513.52 334.382 513.52C335.812 513.52 337.055 513.806 338.111 514.378C339.189 514.928 340.047 515.621 340.685 516.457V513.817H344.48V532H340.685V529.294C340.047 530.152 339.178 530.867 338.078 531.439C336.978 532.011 335.724 532.297 334.316 532.297C332.754 532.297 331.324 531.901 330.026 531.109C328.728 530.295 327.694 529.173 326.924 527.743C326.176 526.291 325.802 524.652 325.802 522.826ZM340.685 522.892C340.685 521.638 340.421 520.549 339.893 519.625C339.387 518.701 338.716 517.997 337.88 517.513C337.044 517.029 336.142 516.787 335.174 516.787C334.206 516.787 333.304 517.029 332.468 517.513C331.632 517.975 330.95 518.668 330.422 519.592C329.916 520.494 329.663 521.572 329.663 522.826C329.663 524.08 329.916 525.18 330.422 526.126C330.95 527.072 331.632 527.798 332.468 528.304C333.326 528.788 334.228 529.03 335.174 529.03C336.142 529.03 337.044 528.788 337.88 528.304C338.716 527.82 339.387 527.116 339.893 526.192C340.421 525.246 340.685 524.146 340.685 522.892ZM353.81 516.886V526.951C353.81 527.633 353.964 528.128 354.272 528.436C354.602 528.722 355.152 528.865 355.922 528.865H358.232V532H355.262C353.568 532 352.27 531.604 351.368 530.812C350.466 530.02 350.015 528.733 350.015 526.951V516.886H347.87V513.817H350.015V509.296H353.81V513.817H358.232V516.886H353.81ZM363.614 511.408C362.932 511.408 362.36 511.177 361.898 510.715C361.436 510.253 361.205 509.681 361.205 508.999C361.205 508.317 361.436 507.745 361.898 507.283C362.36 506.821 362.932 506.59 363.614 506.59C364.274 506.59 364.835 506.821 365.297 507.283C365.759 507.745 365.99 508.317 365.99 508.999C365.99 509.681 365.759 510.253 365.297 510.715C364.835 511.177 364.274 511.408 363.614 511.408ZM365.462 513.817V532H361.7V513.817H365.462ZM378.288 532.297C376.572 532.297 375.021 531.912 373.635 531.142C372.249 530.35 371.16 529.25 370.368 527.842C369.576 526.412 369.18 524.762 369.18 522.892C369.18 521.044 369.587 519.405 370.401 517.975C371.215 516.545 372.326 515.445 373.734 514.675C375.142 513.905 376.715 513.52 378.453 513.52C380.191 513.52 381.764 513.905 383.172 514.675C384.58 515.445 385.691 516.545 386.505 517.975C387.319 519.405 387.726 521.044 387.726 522.892C387.726 524.74 387.308 526.379 386.472 527.809C385.636 529.239 384.492 530.35 383.04 531.142C381.61 531.912 380.026 532.297 378.288 532.297ZM378.288 529.03C379.256 529.03 380.158 528.799 380.994 528.337C381.852 527.875 382.545 527.182 383.073 526.258C383.601 525.334 383.865 524.212 383.865 522.892C383.865 521.572 383.612 520.461 383.106 519.559C382.6 518.635 381.929 517.942 381.093 517.48C380.257 517.018 379.355 516.787 378.387 516.787C377.419 516.787 376.517 517.018 375.681 517.48C374.867 517.942 374.218 518.635 373.734 519.559C373.25 520.461 373.008 521.572 373.008 522.892C373.008 524.85 373.503 526.368 374.493 527.446C375.505 528.502 376.77 529.03 378.288 529.03ZM400.619 513.52C402.049 513.52 403.325 513.817 404.447 514.411C405.591 515.005 406.482 515.885 407.12 517.051C407.758 518.217 408.077 519.625 408.077 521.275V532H404.348V521.836C404.348 520.208 403.941 518.965 403.127 518.107C402.313 517.227 401.202 516.787 399.794 516.787C398.386 516.787 397.264 517.227 396.428 518.107C395.614 518.965 395.207 520.208 395.207 521.836V532H391.445V513.817H395.207V515.896C395.823 515.148 396.604 514.565 397.55 514.147C398.518 513.729 399.541 513.52 400.619 513.52ZM420.762 532.297C419.046 532.297 417.495 531.912 416.109 531.142C414.723 530.35 413.634 529.25 412.842 527.842C412.05 526.412 411.654 524.762 411.654 522.892C411.654 521.044 412.061 519.405 412.875 517.975C413.689 516.545 414.8 515.445 416.208 514.675C417.616 513.905 419.189 513.52 420.927 513.52C422.665 513.52 424.238 513.905 425.646 514.675C427.054 515.445 428.165 516.545 428.979 517.975C429.793 519.405 430.2 521.044 430.2 522.892C430.2 524.74 429.782 526.379 428.946 527.809C428.11 529.239 426.966 530.35 425.514 531.142C424.084 531.912 422.5 532.297 420.762 532.297ZM420.762 529.03C421.73 529.03 422.632 528.799 423.468 528.337C424.326 527.875 425.019 527.182 425.547 526.258C426.075 525.334 426.339 524.212 426.339 522.892C426.339 521.572 426.086 520.461 425.58 519.559C425.074 518.635 424.403 517.942 423.567 517.48C422.731 517.018 421.829 516.787 420.861 516.787C419.893 516.787 418.991 517.018 418.155 517.48C417.341 517.942 416.692 518.635 416.208 519.559C415.724 520.461 415.482 521.572 415.482 522.892C415.482 524.85 415.977 526.368 416.967 527.446C417.979 528.502 419.244 529.03 420.762 529.03ZM437.681 507.58V532H433.919V507.58H437.681ZM475.349 509.065V532H471.587V516.292L464.591 532H461.984L454.955 516.292V532H451.193V509.065H455.252L463.304 527.05L471.323 509.065H475.349ZM479.039 522.826C479.039 521 479.413 519.383 480.161 517.975C480.931 516.567 481.965 515.478 483.263 514.708C484.583 513.916 486.035 513.52 487.619 513.52C489.049 513.52 490.292 513.806 491.348 514.378C492.426 514.928 493.284 515.621 493.922 516.457V513.817H497.717V532H493.922V529.294C493.284 530.152 492.415 530.867 491.315 531.439C490.215 532.011 488.961 532.297 487.553 532.297C485.991 532.297 484.561 531.901 483.263 531.109C481.965 530.295 480.931 529.173 480.161 527.743C479.413 526.291 479.039 524.652 479.039 522.826ZM493.922 522.892C493.922 521.638 493.658 520.549 493.13 519.625C492.624 518.701 491.953 517.997 491.117 517.513C490.281 517.029 489.379 516.787 488.411 516.787C487.443 516.787 486.541 517.029 485.705 517.513C484.869 517.975 484.187 518.668 483.659 519.592C483.153 520.494 482.9 521.572 482.9 522.826C482.9 524.08 483.153 525.18 483.659 526.126C484.187 527.072 484.869 527.798 485.705 528.304C486.563 528.788 487.465 529.03 488.411 529.03C489.379 529.03 490.281 528.788 491.117 528.304C491.953 527.82 492.624 527.116 493.13 526.192C493.658 525.246 493.922 524.146 493.922 522.892ZM506.421 516.457C506.971 515.533 507.697 514.818 508.599 514.312C509.523 513.784 510.612 513.52 511.866 513.52V517.414H510.909C509.435 517.414 508.313 517.788 507.543 518.536C506.795 519.284 506.421 520.582 506.421 522.43V532H502.659V513.817H506.421V516.457ZM522.518 522.925L530.9 532H525.818L519.086 524.179V532H515.324V507.58H519.086V521.77L525.686 513.817H530.9L522.518 522.925ZM550.261 522.463C550.261 523.145 550.217 523.761 550.129 524.311H536.236C536.346 525.763 536.885 526.929 537.853 527.809C538.821 528.689 540.009 529.129 541.417 529.129C543.441 529.129 544.871 528.282 545.707 526.588H549.766C549.216 528.26 548.215 529.635 546.763 530.713C545.333 531.769 543.551 532.297 541.417 532.297C539.679 532.297 538.117 531.912 536.731 531.142C535.367 530.35 534.289 529.25 533.497 527.842C532.727 526.412 532.342 524.762 532.342 522.892C532.342 521.022 532.716 519.383 533.464 517.975C534.234 516.545 535.301 515.445 536.665 514.675C538.051 513.905 539.635 513.52 541.417 513.52C543.133 513.52 544.662 513.894 546.004 514.642C547.346 515.39 548.391 516.446 549.139 517.81C549.887 519.152 550.261 520.703 550.261 522.463ZM546.334 521.275C546.312 519.889 545.817 518.778 544.849 517.942C543.881 517.106 542.682 516.688 541.252 516.688C539.954 516.688 538.843 517.106 537.919 517.942C536.995 518.756 536.445 519.867 536.269 521.275H546.334ZM558.352 516.886V526.951C558.352 527.633 558.506 528.128 558.814 528.436C559.144 528.722 559.694 528.865 560.464 528.865H562.774V532H559.804C558.11 532 556.812 531.604 555.91 530.812C555.008 530.02 554.557 528.733 554.557 526.951V516.886H552.412V513.817H554.557V509.296H558.352V513.817H562.774V516.886H558.352ZM570.004 516.49C570.642 515.654 571.511 514.95 572.611 514.378C573.711 513.806 574.954 513.52 576.34 513.52C577.924 513.52 579.365 513.916 580.663 514.708C581.983 515.478 583.017 516.567 583.765 517.975C584.513 519.383 584.887 521 584.887 522.826C584.887 524.652 584.513 526.291 583.765 527.743C583.017 529.173 581.983 530.295 580.663 531.109C579.365 531.901 577.924 532.297 576.34 532.297C574.954 532.297 573.722 532.022 572.644 531.472C571.566 530.9 570.686 530.196 570.004 529.36V540.646H566.242V513.817H570.004V516.49ZM581.059 522.826C581.059 521.572 580.795 520.494 580.267 519.592C579.761 518.668 579.079 517.975 578.221 517.513C577.385 517.029 576.483 516.787 575.515 516.787C574.569 516.787 573.667 517.029 572.809 517.513C571.973 517.997 571.291 518.701 570.763 519.625C570.257 520.549 570.004 521.638 570.004 522.892C570.004 524.146 570.257 525.246 570.763 526.192C571.291 527.116 571.973 527.82 572.809 528.304C573.667 528.788 574.569 529.03 575.515 529.03C576.483 529.03 577.385 528.788 578.221 528.304C579.079 527.798 579.761 527.072 580.267 526.126C580.795 525.18 581.059 524.08 581.059 522.826ZM592.369 507.58V532H588.607V507.58H592.369ZM596.054 522.826C596.054 521 596.428 519.383 597.176 517.975C597.946 516.567 598.98 515.478 600.278 514.708C601.598 513.916 603.05 513.52 604.634 513.52C606.064 513.52 607.307 513.806 608.363 514.378C609.441 514.928 610.299 515.621 610.937 516.457V513.817H614.732V532H610.937V529.294C610.299 530.152 609.43 530.867 608.33 531.439C607.23 532.011 605.976 532.297 604.568 532.297C603.006 532.297 601.576 531.901 600.278 531.109C598.98 530.295 597.946 529.173 597.176 527.743C596.428 526.291 596.054 524.652 596.054 522.826ZM610.937 522.892C610.937 521.638 610.673 520.549 610.145 519.625C609.639 518.701 608.968 517.997 608.132 517.513C607.296 517.029 606.394 516.787 605.426 516.787C604.458 516.787 603.556 517.029 602.72 517.513C601.884 517.975 601.202 518.668 600.674 519.592C600.168 520.494 599.915 521.572 599.915 522.826C599.915 524.08 600.168 525.18 600.674 526.126C601.202 527.072 601.884 527.798 602.72 528.304C603.578 528.788 604.48 529.03 605.426 529.03C606.394 529.03 607.296 528.788 608.132 528.304C608.968 527.82 609.639 527.116 610.145 526.192C610.673 525.246 610.937 524.146 610.937 522.892ZM618.419 522.892C618.419 521.022 618.793 519.383 619.541 517.975C620.311 516.545 621.367 515.445 622.709 514.675C624.051 513.905 625.591 513.52 627.329 513.52C629.529 513.52 631.344 514.048 632.774 515.104C634.226 516.138 635.205 517.623 635.711 519.559H631.652C631.322 518.657 630.794 517.953 630.068 517.447C629.342 516.941 628.429 516.688 627.329 516.688C625.789 516.688 624.557 517.238 623.633 518.338C622.731 519.416 622.28 520.934 622.28 522.892C622.28 524.85 622.731 526.379 623.633 527.479C624.557 528.579 625.789 529.129 627.329 529.129C629.507 529.129 630.948 528.172 631.652 526.258H635.711C635.183 528.106 634.193 529.58 632.741 530.68C631.289 531.758 629.485 532.297 627.329 532.297C625.591 532.297 624.051 531.912 622.709 531.142C621.367 530.35 620.311 529.25 619.541 527.842C618.793 526.412 618.419 524.762 618.419 522.892ZM656.125 522.463C656.125 523.145 656.081 523.761 655.993 524.311H642.1C642.21 525.763 642.749 526.929 643.717 527.809C644.685 528.689 645.873 529.129 647.281 529.129C649.305 529.129 650.735 528.282 651.571 526.588H655.63C655.08 528.26 654.079 529.635 652.627 530.713C651.197 531.769 649.415 532.297 647.281 532.297C645.543 532.297 643.981 531.912 642.595 531.142C641.231 530.35 640.153 529.25 639.361 527.842C638.591 526.412 638.206 524.762 638.206 522.892C638.206 521.022 638.58 519.383 639.328 517.975C640.098 516.545 641.165 515.445 642.529 514.675C643.915 513.905 645.499 513.52 647.281 513.52C648.997 513.52 650.526 513.894 651.868 514.642C653.21 515.39 654.255 516.446 655.003 517.81C655.751 519.152 656.125 520.703 656.125 522.463ZM652.198 521.275C652.176 519.889 651.681 518.778 650.713 517.942C649.745 517.106 648.546 516.688 647.116 516.688C645.818 516.688 644.707 517.106 643.783 517.942C642.859 518.756 642.309 519.867 642.133 521.275H652.198Z" fill="#D1D1D1"/>
</g>
<defs>
<filter id="filter0_f_5_2" x="816" y="-700" width="1645" height="1645" filterUnits="userSpaceOnUse" color-interpolation-filters="sRGB">
<feFlood flood-opacity="0" result="BackgroundImageFix"/>
<feBlend mode="normal" in="SourceGraphic" in2="BackgroundImageFix" result="shape"/>
<feGaussianBlur stdDeviation="312" result="effect1_foregroundBlur_5_2"/>
</filter>
<clipPath id="clip0_5_2">
<rect width="817" height="880" fill="white"/>
</clipPath>
</defs>
</svg>
