<svg width="619" height="466" viewBox="0 0 619 466" fill="none" xmlns="http://www.w3.org/2000/svg">
<g clip-path="url(#clip0_5_2)">
<rect width="619" height="466" fill="white"/>
<path d="M108.23 286V221.92L414.81 104L144.275 220.585L118.954 231.977V247.774H144.275V257.831H118.954V275.943L144.275 281.06L108.23 286Z" fill="#121212"/>
<path d="M179.56 287.335C175.14 287.335 171.283 286.222 167.99 283.997C164.697 281.772 162.146 278.746 160.336 274.919C158.526 271.092 157.622 266.776 157.622 261.97C157.622 257.105 158.526 252.773 160.336 248.976C162.175 245.149 164.771 242.138 168.124 239.942C171.476 237.717 175.422 236.605 179.961 236.605C184.529 236.605 188.356 237.717 191.442 239.942C194.557 242.138 196.915 245.149 198.517 248.976C200.119 252.803 200.92 257.134 200.92 261.97C200.92 266.746 200.119 271.063 198.517 274.919C196.915 278.746 194.527 281.772 191.353 283.997C188.178 286.222 184.247 287.335 179.56 287.335ZM181.207 277.723C184.084 277.723 186.398 277.07 188.149 275.765C189.929 274.43 191.219 272.576 192.02 270.202C192.851 267.829 193.266 265.085 193.266 261.97C193.266 258.825 192.851 256.081 192.02 253.737C191.219 251.364 189.958 249.525 188.238 248.219C186.517 246.884 184.292 246.217 181.563 246.217C178.685 246.217 176.312 246.929 174.443 248.353C172.574 249.747 171.194 251.646 170.304 254.049C169.414 256.422 168.969 259.063 168.969 261.97C168.969 264.907 169.399 267.577 170.26 269.98C171.15 272.353 172.499 274.237 174.309 275.631C176.119 277.026 178.418 277.723 181.207 277.723ZM193.266 286V252.269H191.931V221.92H202.745V286H193.266Z" fill="#121212"/>
<path d="M233.244 287.379C229.684 287.379 226.747 286.786 224.433 285.599C222.119 284.413 220.279 282.9 218.915 281.06C217.55 279.221 216.541 277.263 215.889 275.186C215.236 273.11 214.806 271.152 214.598 269.312C214.42 267.443 214.331 265.93 214.331 264.773V237.94H225.189V261.08C225.189 262.563 228.792 277.631 229 279.5C229.208 281.339 226.183 269.728 226.925 271.448C227.696 273.139 228.823 274.534 230.307 275.631C231.82 276.729 233.852 277.278 236.403 277.278C237.768 277.278 239.118 277.055 240.453 276.61C241.788 276.165 242.989 275.409 244.057 274.341C245.155 273.243 246.03 271.745 246.683 269.846C247.335 267.948 229 282.407 229 279.5L249.5 268.5L254.025 265.352C254.025 269.446 253.224 273.154 251.622 276.477C250.05 279.8 247.721 282.455 244.636 284.442C241.55 286.4 237.753 287.379 233.244 287.379ZM248.952 286V271.092H247.662V237.94H258.431V286H248.952Z" fill="#121212"/>
<path d="M291.804 287.335C286.849 287.335 282.622 286.237 279.121 284.042C275.62 281.817 272.936 278.791 271.067 274.964C269.227 271.137 268.293 266.806 268.263 261.97C268.293 257.045 269.257 252.684 271.156 248.887C273.084 245.06 275.813 242.064 279.344 239.898C282.874 237.703 287.072 236.605 291.937 236.605C297.396 236.605 302.009 237.984 305.777 240.743C309.574 243.473 312.051 247.211 313.208 251.957L302.528 254.85C301.697 252.269 300.318 250.266 298.39 248.842C296.461 247.389 294.266 246.662 291.804 246.662C289.015 246.662 286.716 247.329 284.906 248.664C283.096 249.97 281.761 251.779 280.901 254.093C280.041 256.407 279.611 259.033 279.611 261.97C279.611 266.539 280.634 270.232 282.681 273.05C284.728 275.869 287.769 277.278 291.804 277.278C294.652 277.278 296.891 276.625 298.523 275.32C300.184 274.015 301.43 272.131 302.261 269.668L313.208 272.116C311.725 277.011 309.129 280.779 305.421 283.419C301.712 286.03 297.173 287.335 291.804 287.335Z" fill="#121212"/>
<path d="M321.712 286V220.585H332.436V286H321.712Z" fill="#121212"/>
<path d="M346.656 230.642V220.807H357.381V230.642H346.656ZM346.656 286V237.94H357.381V286H346.656Z" fill="#121212"/>
<path d="M403.952 286V262.86C403.952 261.347 403.848 259.671 403.64 257.831C403.433 255.992 402.943 254.227 402.172 252.536C401.43 250.815 400.303 249.406 398.79 248.308C397.307 247.211 395.289 246.662 392.738 246.662C391.373 246.662 390.023 246.884 388.688 247.329C387.353 247.774 386.137 248.546 385.039 249.643C383.971 250.711 383.111 252.195 382.458 254.093C381.806 255.962 381.479 258.365 381.479 261.302L375.116 258.588C375.116 254.494 375.902 250.786 377.474 247.463C379.076 244.14 381.42 241.5 384.505 239.542C387.591 237.554 391.388 236.56 395.897 236.56C399.457 236.56 402.394 237.154 404.708 238.34C407.022 239.527 408.862 241.04 410.226 242.879C411.591 244.719 412.6 246.677 413.252 248.753C413.905 250.83 414.32 252.803 414.498 254.672C414.706 256.511 414.81 258.009 414.81 259.166V286H403.952ZM370.621 286V237.94H380.189V252.847H381.479V286H370.621Z" fill="#121212"/>
<path d="M427.312 230.642L431.5 237.94L438.037 220.807L411.5 206.5L427.312 230.642ZM427.312 286V237.94H438.037V286H427.312Z" fill="#121212"/>
<path d="M472.237 287.335C467.283 287.335 463.055 286.237 459.555 284.042C456.054 281.817 453.369 278.791 451.5 274.964C449.661 271.137 448.726 266.806 448.697 261.97C448.726 257.045 449.691 252.684 451.589 248.887C453.518 245.06 456.247 242.064 459.777 239.898C463.308 237.703 467.505 236.605 472.371 236.605C477.829 236.605 482.443 237.984 486.21 240.743C490.008 243.473 492.485 247.211 493.642 251.957L482.962 254.85C482.131 252.269 480.752 250.266 478.823 248.842C476.895 247.389 474.7 246.662 472.237 246.662C469.449 246.662 467.149 247.329 465.34 248.664C463.53 249.97 462.195 251.779 461.335 254.093C460.474 256.407 460.044 259.033 460.044 261.97C460.044 266.539 461.068 270.232 463.115 273.05C465.162 275.869 468.203 277.278 472.237 277.278C475.085 277.278 477.325 276.625 478.957 275.32C480.618 274.015 481.864 272.131 482.695 269.668L493.642 272.116C492.158 277.011 489.563 280.779 485.854 283.419C482.146 286.03 477.607 287.335 472.237 287.335Z" fill="#121212"/>
<path d="M80.47 327.065L72.88 341.684V350H69.118V341.684L61.495 327.065H65.686L70.999 338.318L76.312 327.065H80.47ZM91.3425 350.297C89.6265 350.297 88.0755 349.912 86.6895 349.142C85.3035 348.35 84.2145 347.25 83.4225 345.842C82.6305 344.412 82.2345 342.762 82.2345 340.892C82.2345 339.044 82.6415 337.405 83.4555 335.975C84.2695 334.545 85.3805 333.445 86.7885 332.675C88.1965 331.905 89.7695 331.52 91.5075 331.52C93.2455 331.52 94.8185 331.905 96.2265 332.675C97.6345 333.445 98.7455 334.545 99.5595 335.975C100.373 337.405 100.78 339.044 100.78 340.892C100.78 342.74 100.362 344.379 99.5265 345.809C98.6905 347.239 97.5465 348.35 96.0945 349.142C94.6645 349.912 93.0805 350.297 91.3425 350.297ZM91.3425 347.03C92.3105 347.03 93.2125 346.799 94.0485 346.337C94.9065 345.875 95.5995 345.182 96.1275 344.258C96.6555 343.334 96.9195 342.212 96.9195 340.892C96.9195 339.572 96.6665 338.461 96.1605 337.559C95.6545 336.635 94.9835 335.942 94.1475 335.48C93.3115 335.018 92.4095 334.787 91.4415 334.787C90.4735 334.787 89.5715 335.018 88.7355 335.48C87.9215 335.942 87.2725 336.635 86.7885 337.559C86.3045 338.461 86.0625 339.572 86.0625 340.892C86.0625 342.85 86.5575 344.368 87.5475 345.446C88.5595 346.502 89.8245 347.03 91.3425 347.03ZM120.966 331.817V350H117.204V347.855C116.61 348.603 115.829 349.197 114.861 349.637C113.915 350.055 112.903 350.264 111.825 350.264C110.395 350.264 109.108 349.967 107.964 349.373C106.842 348.779 105.951 347.899 105.291 346.733C104.653 345.567 104.334 344.159 104.334 342.509V331.817H108.063V341.948C108.063 343.576 108.47 344.83 109.284 345.71C110.098 346.568 111.209 346.997 112.617 346.997C114.025 346.997 115.136 346.568 115.95 345.71C116.786 344.83 117.204 343.576 117.204 341.948V331.817H120.966ZM129.692 334.457C130.242 333.533 130.968 332.818 131.87 332.312C132.794 331.784 133.883 331.52 135.137 331.52V335.414H134.18C132.706 335.414 131.584 335.788 130.814 336.536C130.066 337.284 129.692 338.582 129.692 340.43V350H125.93V331.817H129.692V334.457ZM150.929 330.101V336.833H158.849V339.902H150.929V346.931H159.839V350H147.167V327.032H159.839V330.101H150.929ZM163.219 340.826C163.219 339 163.593 337.383 164.341 335.975C165.111 334.567 166.145 333.478 167.443 332.708C168.763 331.916 170.226 331.52 171.832 331.52C173.02 331.52 174.186 331.784 175.33 332.312C176.496 332.818 177.42 333.5 178.102 334.358V325.58H181.897V350H178.102V347.261C177.486 348.141 176.628 348.867 175.528 349.439C174.45 350.011 173.207 350.297 171.799 350.297C170.215 350.297 168.763 349.901 167.443 349.109C166.145 348.295 165.111 347.173 164.341 345.743C163.593 344.291 163.219 342.652 163.219 340.826ZM178.102 340.892C178.102 339.638 177.838 338.549 177.31 337.625C176.804 336.701 176.133 335.997 175.297 335.513C174.461 335.029 173.559 334.787 172.591 334.787C171.623 334.787 170.721 335.029 169.885 335.513C169.049 335.975 168.367 336.668 167.839 337.592C167.333 338.494 167.08 339.572 167.08 340.826C167.08 342.08 167.333 343.18 167.839 344.126C168.367 345.072 169.049 345.798 169.885 346.304C170.743 346.788 171.645 347.03 172.591 347.03C173.559 347.03 174.461 346.788 175.297 346.304C176.133 345.82 176.804 345.116 177.31 344.192C177.838 343.246 178.102 342.146 178.102 340.892ZM203.305 331.817V350H199.543V347.855C198.949 348.603 198.168 349.197 197.2 349.637C196.254 350.055 195.242 350.264 194.164 350.264C192.734 350.264 191.447 349.967 190.303 349.373C189.181 348.779 188.29 347.899 187.63 346.733C186.992 345.567 186.673 344.159 186.673 342.509V331.817H190.402V341.948C190.402 343.576 190.809 344.83 191.623 345.71C192.437 346.568 193.548 346.997 194.956 346.997C196.364 346.997 197.475 346.568 198.289 345.71C199.125 344.83 199.543 343.576 199.543 341.948V331.817H203.305ZM207.015 340.892C207.015 339.022 207.389 337.383 208.137 335.975C208.907 334.545 209.963 333.445 211.305 332.675C212.647 331.905 214.187 331.52 215.925 331.52C218.125 331.52 219.94 332.048 221.37 333.104C222.822 334.138 223.801 335.623 224.307 337.559H220.248C219.918 336.657 219.39 335.953 218.664 335.447C217.938 334.941 217.025 334.688 215.925 334.688C214.385 334.688 213.153 335.238 212.229 336.338C211.327 337.416 210.876 338.934 210.876 340.892C210.876 342.85 211.327 344.379 212.229 345.479C213.153 346.579 214.385 347.129 215.925 347.129C218.103 347.129 219.544 346.172 220.248 344.258H224.307C223.779 346.106 222.789 347.58 221.337 348.68C219.885 349.758 218.081 350.297 215.925 350.297C214.187 350.297 212.647 349.912 211.305 349.142C209.963 348.35 208.907 347.25 208.137 345.842C207.389 344.412 207.015 342.762 207.015 340.892ZM226.802 340.826C226.802 339 227.176 337.383 227.924 335.975C228.694 334.567 229.728 333.478 231.026 332.708C232.346 331.916 233.798 331.52 235.382 331.52C236.812 331.52 238.055 331.806 239.111 332.378C240.189 332.928 241.047 333.621 241.685 334.457V331.817H245.48V350H241.685V347.294C241.047 348.152 240.178 348.867 239.078 349.439C237.978 350.011 236.724 350.297 235.316 350.297C233.754 350.297 232.324 349.901 231.026 349.109C229.728 348.295 228.694 347.173 227.924 345.743C227.176 344.291 226.802 342.652 226.802 340.826ZM241.685 340.892C241.685 339.638 241.421 338.549 240.893 337.625C240.387 336.701 239.716 335.997 238.88 335.513C238.044 335.029 237.142 334.787 236.174 334.787C235.206 334.787 234.304 335.029 233.468 335.513C232.632 335.975 231.95 336.668 231.422 337.592C230.916 338.494 230.663 339.572 230.663 340.826C230.663 342.08 230.916 343.18 231.422 344.126C231.95 345.072 232.632 345.798 233.468 346.304C234.326 346.788 235.228 347.03 236.174 347.03C237.142 347.03 238.044 346.788 238.88 346.304C239.716 345.82 240.387 345.116 240.893 344.192C241.421 343.246 241.685 342.146 241.685 340.892ZM254.81 334.886V344.951C254.81 345.633 254.964 346.128 255.272 346.436C255.602 346.722 256.152 346.865 256.922 346.865H259.232V350H256.262C254.568 350 253.27 349.604 252.368 348.812C251.466 348.02 251.015 346.733 251.015 344.951V334.886H248.87V331.817H251.015V327.296H254.81V331.817H259.232V334.886H254.81ZM264.614 329.408C263.932 329.408 263.36 329.177 262.898 328.715C262.436 328.253 262.205 327.681 262.205 326.999C262.205 326.317 262.436 325.745 262.898 325.283C263.36 324.821 263.932 324.59 264.614 324.59C265.274 324.59 265.835 324.821 266.297 325.283C266.759 325.745 266.99 326.317 266.99 326.999C266.99 327.681 266.759 328.253 266.297 328.715C265.835 329.177 265.274 329.408 264.614 329.408ZM266.462 331.817V350H262.7V331.817H266.462ZM279.288 350.297C277.572 350.297 276.021 349.912 274.635 349.142C273.249 348.35 272.16 347.25 271.368 345.842C270.576 344.412 270.18 342.762 270.18 340.892C270.18 339.044 270.587 337.405 271.401 335.975C272.215 334.545 273.326 333.445 274.734 332.675C276.142 331.905 277.715 331.52 279.453 331.52C281.191 331.52 282.764 331.905 284.172 332.675C285.58 333.445 286.691 334.545 287.505 335.975C288.319 337.405 288.726 339.044 288.726 340.892C288.726 342.74 288.308 344.379 287.472 345.809C286.636 347.239 285.492 348.35 284.04 349.142C282.61 349.912 281.026 350.297 279.288 350.297ZM279.288 347.03C280.256 347.03 281.158 346.799 281.994 346.337C282.852 345.875 283.545 345.182 284.073 344.258C284.601 343.334 284.865 342.212 284.865 340.892C284.865 339.572 284.612 338.461 284.106 337.559C283.6 336.635 282.929 335.942 282.093 335.48C281.257 335.018 280.355 334.787 279.387 334.787C278.419 334.787 277.517 335.018 276.681 335.48C275.867 335.942 275.218 336.635 274.734 337.559C274.25 338.461 274.008 339.572 274.008 340.892C274.008 342.85 274.503 344.368 275.493 345.446C276.505 346.502 277.77 347.03 279.288 347.03ZM301.619 331.52C303.049 331.52 304.325 331.817 305.447 332.411C306.591 333.005 307.482 333.885 308.12 335.051C308.758 336.217 309.077 337.625 309.077 339.275V350H305.348V339.836C305.348 338.208 304.941 336.965 304.127 336.107C303.313 335.227 302.202 334.787 300.794 334.787C299.386 334.787 298.264 335.227 297.428 336.107C296.614 336.965 296.207 338.208 296.207 339.836V350H292.445V331.817H296.207V333.896C296.823 333.148 297.604 332.565 298.55 332.147C299.518 331.729 300.541 331.52 301.619 331.52ZM321.762 350.297C320.046 350.297 318.495 349.912 317.109 349.142C315.723 348.35 314.634 347.25 313.842 345.842C313.05 344.412 312.654 342.762 312.654 340.892C312.654 339.044 313.061 337.405 313.875 335.975C314.689 334.545 315.8 333.445 317.208 332.675C318.616 331.905 320.189 331.52 321.927 331.52C323.665 331.52 325.238 331.905 326.646 332.675C328.054 333.445 329.165 334.545 329.979 335.975C330.793 337.405 331.2 339.044 331.2 340.892C331.2 342.74 330.782 344.379 329.946 345.809C329.11 347.239 327.966 348.35 326.514 349.142C325.084 349.912 323.5 350.297 321.762 350.297ZM321.762 347.03C322.73 347.03 323.632 346.799 324.468 346.337C325.326 345.875 326.019 345.182 326.547 344.258C327.075 343.334 327.339 342.212 327.339 340.892C327.339 339.572 327.086 338.461 326.58 337.559C326.074 336.635 325.403 335.942 324.567 335.48C323.731 335.018 322.829 334.787 321.861 334.787C320.893 334.787 319.991 335.018 319.155 335.48C318.341 335.942 317.692 336.635 317.208 337.559C316.724 338.461 316.482 339.572 316.482 340.892C316.482 342.85 316.977 344.368 317.967 345.446C318.979 346.502 320.244 347.03 321.762 347.03ZM338.681 325.58V350H334.919V325.58H338.681ZM376.349 327.065V350H372.587V334.292L365.591 350H362.984L355.955 334.292V350H352.193V327.065H356.252L364.304 345.05L372.323 327.065H376.349ZM380.039 340.826C380.039 339 380.413 337.383 381.161 335.975C381.931 334.567 382.965 333.478 384.263 332.708C385.583 331.916 387.035 331.52 388.619 331.52C390.049 331.52 391.292 331.806 392.348 332.378C393.426 332.928 394.284 333.621 394.922 334.457V331.817H398.717V350H394.922V347.294C394.284 348.152 393.415 348.867 392.315 349.439C391.215 350.011 389.961 350.297 388.553 350.297C386.991 350.297 385.561 349.901 384.263 349.109C382.965 348.295 381.931 347.173 381.161 345.743C380.413 344.291 380.039 342.652 380.039 340.826ZM394.922 340.892C394.922 339.638 394.658 338.549 394.13 337.625C393.624 336.701 392.953 335.997 392.117 335.513C391.281 335.029 390.379 334.787 389.411 334.787C388.443 334.787 387.541 335.029 386.705 335.513C385.869 335.975 385.187 336.668 384.659 337.592C384.153 338.494 383.9 339.572 383.9 340.826C383.9 342.08 384.153 343.18 384.659 344.126C385.187 345.072 385.869 345.798 386.705 346.304C387.563 346.788 388.465 347.03 389.411 347.03C390.379 347.03 391.281 346.788 392.117 346.304C392.953 345.82 393.624 345.116 394.13 344.192C394.658 343.246 394.922 342.146 394.922 340.892ZM407.421 334.457C407.971 333.533 408.697 332.818 409.599 332.312C410.523 331.784 411.612 331.52 412.866 331.52V335.414H411.909C410.435 335.414 409.313 335.788 408.543 336.536C407.795 337.284 407.421 338.582 407.421 340.43V350H403.659V331.817H407.421V334.457ZM423.518 340.925L431.9 350H426.818L420.086 342.179V350H416.324V325.58H420.086V339.77L426.686 331.817H431.9L423.518 340.925ZM451.261 340.463C451.261 341.145 451.217 341.761 451.129 342.311H437.236C437.346 343.763 437.885 344.929 438.853 345.809C439.821 346.689 441.009 347.129 442.417 347.129C444.441 347.129 445.871 346.282 446.707 344.588H450.766C450.216 346.26 449.215 347.635 447.763 348.713C446.333 349.769 444.551 350.297 442.417 350.297C440.679 350.297 439.117 349.912 437.731 349.142C436.367 348.35 435.289 347.25 434.497 345.842C433.727 344.412 433.342 342.762 433.342 340.892C433.342 339.022 433.716 337.383 434.464 335.975C435.234 334.545 436.301 333.445 437.665 332.675C439.051 331.905 440.635 331.52 442.417 331.52C444.133 331.52 445.662 331.894 447.004 332.642C448.346 333.39 449.391 334.446 450.139 335.81C450.887 337.152 451.261 338.703 451.261 340.463ZM447.334 339.275C447.312 337.889 446.817 336.778 445.849 335.942C444.881 335.106 443.682 334.688 442.252 334.688C440.954 334.688 439.843 335.106 438.919 335.942C437.995 336.756 437.445 337.867 437.269 339.275H447.334ZM459.352 334.886V344.951C459.352 345.633 459.506 346.128 459.814 346.436C460.144 346.722 460.694 346.865 461.464 346.865H463.774V350H460.804C459.11 350 457.812 349.604 456.91 348.812C456.008 348.02 455.557 346.733 455.557 344.951V334.886H453.412V331.817H455.557V327.296H459.352V331.817H463.774V334.886H459.352ZM471.004 334.49C471.642 333.654 472.511 332.95 473.611 332.378C474.711 331.806 475.954 331.52 477.34 331.52C478.924 331.52 480.365 331.916 481.663 332.708C482.983 333.478 484.017 334.567 484.765 335.975C485.513 337.383 485.887 339 485.887 340.826C485.887 342.652 485.513 344.291 484.765 345.743C484.017 347.173 482.983 348.295 481.663 349.109C480.365 349.901 478.924 350.297 477.34 350.297C475.954 350.297 474.722 350.022 473.644 349.472C472.566 348.9 471.686 348.196 471.004 347.36V358.646H467.242V331.817H471.004V334.49ZM482.059 340.826C482.059 339.572 481.795 338.494 481.267 337.592C480.761 336.668 480.079 335.975 479.221 335.513C478.385 335.029 477.483 334.787 476.515 334.787C475.569 334.787 474.667 335.029 473.809 335.513C472.973 335.997 472.291 336.701 471.763 337.625C471.257 338.549 471.004 339.638 471.004 340.892C471.004 342.146 471.257 343.246 471.763 344.192C472.291 345.116 472.973 345.82 473.809 346.304C474.667 346.788 475.569 347.03 476.515 347.03C477.483 347.03 478.385 346.788 479.221 346.304C480.079 345.798 480.761 345.072 481.267 344.126C481.795 343.18 482.059 342.08 482.059 340.826ZM493.369 325.58V350H489.607V325.58H493.369ZM497.054 340.826C497.054 339 497.428 337.383 498.176 335.975C498.946 334.567 499.98 333.478 501.278 332.708C502.598 331.916 504.05 331.52 505.634 331.52C507.064 331.52 508.307 331.806 509.363 332.378C510.441 332.928 511.299 333.621 511.937 334.457V331.817H515.732V350H511.937V347.294C511.299 348.152 510.43 348.867 509.33 349.439C508.23 350.011 506.976 350.297 505.568 350.297C504.006 350.297 502.576 349.901 501.278 349.109C499.98 348.295 498.946 347.173 498.176 345.743C497.428 344.291 497.054 342.652 497.054 340.826ZM511.937 340.892C511.937 339.638 511.673 338.549 511.145 337.625C510.639 336.701 509.968 335.997 509.132 335.513C508.296 335.029 507.394 334.787 506.426 334.787C505.458 334.787 504.556 335.029 503.72 335.513C502.884 335.975 502.202 336.668 501.674 337.592C501.168 338.494 500.915 339.572 500.915 340.826C500.915 342.08 501.168 343.18 501.674 344.126C502.202 345.072 502.884 345.798 503.72 346.304C504.578 346.788 505.48 347.03 506.426 347.03C507.394 347.03 508.296 346.788 509.132 346.304C509.968 345.82 510.639 345.116 511.145 344.192C511.673 343.246 511.937 342.146 511.937 340.892ZM519.419 340.892C519.419 339.022 519.793 337.383 520.541 335.975C521.311 334.545 522.367 333.445 523.709 332.675C525.051 331.905 526.591 331.52 528.329 331.52C530.529 331.52 532.344 332.048 533.774 333.104C535.226 334.138 536.205 335.623 536.711 337.559H532.652C532.322 336.657 531.794 335.953 531.068 335.447C530.342 334.941 529.429 334.688 528.329 334.688C526.789 334.688 525.557 335.238 524.633 336.338C523.731 337.416 523.28 338.934 523.28 340.892C523.28 342.85 523.731 344.379 524.633 345.479C525.557 346.579 526.789 347.129 528.329 347.129C530.507 347.129 531.948 346.172 532.652 344.258H536.711C536.183 346.106 535.193 347.58 533.741 348.68C532.289 349.758 530.485 350.297 528.329 350.297C526.591 350.297 525.051 349.912 523.709 349.142C522.367 348.35 521.311 347.25 520.541 345.842C519.793 344.412 519.419 342.762 519.419 340.892ZM557.125 340.463C557.125 341.145 557.081 341.761 556.993 342.311H543.1C543.21 343.763 543.749 344.929 544.717 345.809C545.685 346.689 546.873 347.129 548.281 347.129C550.305 347.129 551.735 346.282 552.571 344.588H556.63C556.08 346.26 555.079 347.635 553.627 348.713C552.197 349.769 550.415 350.297 548.281 350.297C546.543 350.297 544.981 349.912 543.595 349.142C542.231 348.35 541.153 347.25 540.361 345.842C539.591 344.412 539.206 342.762 539.206 340.892C539.206 339.022 539.58 337.383 540.328 335.975C541.098 334.545 542.165 333.445 543.529 332.675C544.915 331.905 546.499 331.52 548.281 331.52C549.997 331.52 551.526 331.894 552.868 332.642C554.21 333.39 555.255 334.446 556.003 335.81C556.751 337.152 557.125 338.703 557.125 340.463ZM553.198 339.275C553.176 337.889 552.681 336.778 551.713 335.942C550.745 335.106 549.546 334.688 548.116 334.688C546.818 334.688 545.707 335.106 544.783 335.942C543.859 336.756 543.309 337.867 543.133 339.275H553.198Z" fill="#303030"/>
</g>
<defs>
<clipPath id="clip0_5_2">
<rect width="619" height="466" fill="white"/>
</clipPath>
</defs>
</svg>
