<svg width="575" height="407" viewBox="0 0 575 407" fill="none" xmlns="http://www.w3.org/2000/svg">
<g clip-path="url(#clip0_13_2)">
<rect width="575" height="407" rx="10" fill="#2D2D2D"/>
<path d="M-267.528 33.6987C-153.164 89.4508 -33.6585 148.534 97.5441 130.872C185.472 119.035 271.224 84.7676 353.642 53.9205C423.108 27.9213 479.387 5.09418 549.278 -19.7695C585.83 -32.7729 647.321 -55.8248 689.918 -60.6306C732.51 -65.4358 743.199 -37.555 761.312 -4.75673C785.121 38.3538 804.542 98.2875 854.353 119.485C872.117 127.045 892.075 129.71 911.38 129.592C952.046 129.344 1111.2 101 1136.38 96.9314C1260.83 76.8252 1385.03 59.6783 1510.12 44.857" stroke="white" stroke-opacity="0.2" stroke-width="2" stroke-linecap="round"/>
<path d="M-565.276 293.35C-462.056 367.735 -354.336 446.276 -222.041 451.179C-133.38 454.464 -43.0513 435.275 43.4122 418.89C116.287 405.08 175.628 392.154 248.728 379.536C286.959 372.936 351.474 360.675 394.268 363.181C437.056 365.688 442.85 394.98 455.123 430.38C471.255 476.911 480.203 539.274 525.685 568.632C541.905 579.102 561.12 585.122 580.163 588.288C620.28 594.957 781.94 594.086 807.444 594.359C933.499 595.704 1058.8 599.923 1184.6 606.587" stroke="white" stroke-opacity="0.2" stroke-width="2" stroke-linecap="round"/>
<circle cx="-7.01035" cy="352.324" r="5.5" transform="rotate(-38.961 -7.01035 352.324)" fill="#6F6F6F"/>
<circle cx="8.54116" cy="339.748" r="5.5" transform="rotate(-38.961 8.54116 339.748)" fill="#818181" fill-opacity="0.07"/>
<circle cx="24.0927" cy="327.172" r="5.5" transform="rotate(-38.961 24.0927 327.172)" fill="#818181" fill-opacity="0.07"/>
<circle cx="39.6442" cy="314.596" r="5.5" transform="rotate(-38.961 39.6442 314.596)" fill="#818181" fill-opacity="0.07"/>
<circle cx="55.1957" cy="302.02" r="5.5" transform="rotate(-38.961 55.1957 302.02)" fill="#818181" fill-opacity="0.07"/>
<circle cx="45.735" cy="71.1413" r="5.5" transform="rotate(-38.961 45.735 71.1413)" fill="#818181" fill-opacity="0.07"/>
<circle cx="61.2865" cy="58.5654" r="5.5" transform="rotate(-38.961 61.2865 58.5654)" fill="#818181" fill-opacity="0.07"/>
<circle cx="76.838" cy="45.9896" r="5.5" transform="rotate(-38.961 76.838 45.9896)" fill="#818181" fill-opacity="0.07"/>
<circle cx="530.735" cy="208.141" r="5.5" transform="rotate(-38.961 530.735 208.141)" fill="#818181" fill-opacity="0.07"/>
<circle cx="546.286" cy="195.565" r="5.5" transform="rotate(-38.961 546.286 195.565)" fill="#818181" fill-opacity="0.07"/>
<circle cx="561.838" cy="182.99" r="5.5" transform="rotate(-38.961 561.838 182.99)" fill="#818181" fill-opacity="0.07"/>
<circle cx="577.39" cy="170.414" r="5.5" transform="rotate(-38.961 577.39 170.414)" fill="#818181" fill-opacity="0.07"/>
<circle cx="-4.03477" cy="324.196" r="5.5" transform="rotate(-38.961 -4.03477 324.196)" fill="#6F6F6F"/>
<circle cx="11.5167" cy="311.62" r="5.5" transform="rotate(-38.961 11.5167 311.62)" fill="#818181" fill-opacity="0.07"/>
<circle cx="27.0683" cy="299.045" r="5.5" transform="rotate(-38.961 27.0683 299.045)" fill="#818181" fill-opacity="0.07"/>
<circle cx="42.6198" cy="286.469" r="5.5" transform="rotate(-38.961 42.6198 286.469)" fill="#818181" fill-opacity="0.07"/>
<circle cx="58.1713" cy="273.893" r="5.5" transform="rotate(-38.961 58.1713 273.893)" fill="#818181" fill-opacity="0.07"/>
<circle cx="48.7108" cy="43.0139" r="5.5" transform="rotate(-38.961 48.7108 43.0139)" fill="#818181" fill-opacity="0.07"/>
<circle cx="64.2624" cy="30.4381" r="5.5" transform="rotate(-38.961 64.2624 30.4381)" fill="#818181" fill-opacity="0.07"/>
<circle cx="79.8139" cy="17.8623" r="5.5" transform="rotate(-38.961 79.8139 17.8623)" fill="#818181" fill-opacity="0.07"/>
<circle cx="533.711" cy="180.014" r="5.5" transform="rotate(-38.961 533.711 180.014)" fill="#818181" fill-opacity="0.07"/>
<circle cx="549.262" cy="167.438" r="5.5" transform="rotate(-38.961 549.262 167.438)" fill="#818181" fill-opacity="0.07"/>
<circle cx="564.814" cy="154.862" r="5.5" transform="rotate(-38.961 564.814 154.862)" fill="#818181" fill-opacity="0.07"/>
<circle cx="580.365" cy="142.287" r="5.5" transform="rotate(-38.961 580.365 142.287)" fill="#818181" fill-opacity="0.07"/>
<circle cx="-1.05894" cy="296.069" r="5.5" transform="rotate(-38.961 -1.05894 296.069)" fill="#6F6F6F"/>
<circle cx="14.4926" cy="283.493" r="5.5" transform="rotate(-38.961 14.4926 283.493)" fill="#818181" fill-opacity="0.07"/>
<circle cx="30.0438" cy="270.917" r="5.5" transform="rotate(-38.961 30.0438 270.917)" fill="#818181" fill-opacity="0.07"/>
<circle cx="45.5954" cy="258.341" r="5.5" transform="rotate(-38.961 45.5954 258.341)" fill="#818181" fill-opacity="0.07"/>
<circle cx="61.1469" cy="245.766" r="5.5" transform="rotate(-38.961 61.1469 245.766)" fill="#818181" fill-opacity="0.07"/>
<circle cx="51.6864" cy="14.8866" r="5.5" transform="rotate(-38.961 51.6864 14.8866)" fill="#818181" fill-opacity="0.07"/>
<circle cx="67.2379" cy="2.3108" r="5.5" transform="rotate(-38.961 67.2379 2.3108)" fill="#818181" fill-opacity="0.07"/>
<circle cx="536.686" cy="151.887" r="5.5" transform="rotate(-38.961 536.686 151.887)" fill="#818181" fill-opacity="0.07"/>
<circle cx="552.238" cy="139.311" r="5.5" transform="rotate(-38.961 552.238 139.311)" fill="#818181" fill-opacity="0.07"/>
<circle cx="567.789" cy="126.735" r="5.5" transform="rotate(-38.961 567.789 126.735)" fill="#818181" fill-opacity="0.07"/>
<circle cx="170.007" cy="157.735" r="5.5" transform="rotate(-38.961 170.007 157.735)" fill="#818181" fill-opacity="0.07"/>
<path d="M154.724 403.35C257.944 477.735 365.664 556.276 497.959 561.179C586.62 564.464 676.949 545.275 763.412 528.89C836.287 515.08 895.628 502.154 968.728 489.536C1006.96 482.936 1071.47 470.675 1114.27 473.181C1157.06 475.688 1162.85 504.98 1175.12 540.38C1191.26 586.911 1200.2 649.274 1245.69 678.632C1261.9 689.102 1281.12 695.122 1300.16 698.288C1340.28 704.957 1501.94 704.086 1527.44 704.359C1653.5 705.704 1778.8 709.923 1904.6 716.587" stroke="white" stroke-width="2" stroke-linecap="round"/>
</g>
<defs>
<clipPath id="clip0_13_2">
<rect width="575" height="407" rx="10" fill="white"/>
</clipPath>
</defs>
</svg>
